<?xml version="1.0" encoding="UTF-8" standalone="no"?>
<svg width="320" height="360" viewBox="0 0 320 360" fill="none" xmlns="http://www.w3.org/2000/svg">
    <g clip-path="url(#clip0_2_9)">
        <rect width="320" height="360" fill="#FF5348"/>
        <g clip-path="url(#clip1_2_9)">
            <path d="M20.961 227.22L24.687 231.878L22.824 225.822C22.358 223.027 19.098 226.288 20.961 227.22ZM25.153 224.425C26.55 226.754 27.948 229.083 27.948 231.412C27.948 234.673 30.743 236.07 33.071 237.001C29.81 233.275 27.947 223.027 25.153 224.425ZM204.017 26.929C211.935 26.929 219.388 25.997 227.773 27.86C248.268 32.984 265.502 43.231 277.147 57.671L309.753 109.84C311.15 122.882 313.945 137.322 313.479 153.159C316.74 153.159 316.274 148.501 320 147.569C316.274 156.885 314.41 168.53 313.479 182.038C311.15 174.585 313.479 163.406 313.945 157.351C310.684 162.475 308.821 158.748 308.821 156.419C309.287 152.693 307.424 153.158 306.026 151.761C300.902 147.103 297.642 141.979 293.916 134.061C296.245 128.006 296.711 119.156 289.258 114.498C286.929 113.101 284.134 110.772 282.737 107.045C280.874 101.921 277.613 95.866 278.544 87.948C279.01 85.619 271.557 93.072 267.365 89.811C249.199 77.235 231.033 62.795 209.141 50.684C197.496 50.684 189.112 46.492 184.92 41.368C181.194 36.71 183.988 30.655 189.578 30.189C192.839 30.189 196.565 29.257 199.36 31.121C199.826 29.258 201.689 26.929 204.017 26.929ZM157.904 16.215L158.836 16.681C163.494 17.613 165.823 24.134 170.946 21.805C170.946 25.066 171.412 28.326 170.48 30.655C169.083 34.381 164.89 34.381 161.63 34.381C130.422 32.518 112.256 45.56 93.159 56.739C88.035 60 82.446 62.329 78.253 66.521C58.224 85.153 36.332 102.387 31.208 136.856L27.016 175.051C26.55 179.243 21.892 183.435 22.824 188.559L26.084 211.383C22.823 208.122 20.96 212.315 21.892 214.178C22.358 215.575 24.221 220.233 27.016 216.041C30.742 223.028 34.469 236.536 39.592 242.591C55.429 261.223 75.924 277.991 92.693 294.76C96.885 293.828 100.146 293.828 101.077 291.033C102.474 293.828 99.68 296.623 97.351 297.089C104.804 301.747 113.188 305.939 124.367 306.87C138.807 307.802 152.315 310.131 164.891 313.392C171.412 311.529 177.933 310.597 184.92 310.131C187.249 310.131 188.646 306.405 191.441 305.473L191.907 300.815C194.702 305.007 194.236 299.418 192.373 296.623C195.634 299.418 196.565 301.747 197.962 303.61C197.962 302.213 201.688 297.089 201.689 303.144L202.62 297.089C204.017 296.157 204.483 302.213 205.881 298.02C207.278 293.828 210.073 297.088 212.868 295.691C211.936 297.554 212.402 301.281 215.662 298.952L219.389 295.691C221.718 301.281 225.444 298.952 227.307 298.02C247.802 284.978 268.297 269.607 287.86 254.236L287.394 260.291L289.723 252.838C292.052 255.167 293.915 253.304 294.847 251.907C297.642 247.249 301.368 242.591 307.424 238.399C299.971 258.428 291.121 274.265 279.942 287.307L275.284 292.897C275.284 296.158 274.352 300.35 270.626 300.815C268.763 301.281 265.036 299.883 262.242 302.678C260.845 304.541 265.503 308.268 261.776 305.473C258.515 303.144 255.255 305.473 251.528 306.405C248.733 307.337 253.391 310.131 254.323 311.994C255.255 313.857 256.186 315.72 255.721 318.05L250.597 312.46C244.542 315.721 240.815 321.776 235.691 326.434C233.362 328.297 234.294 331.558 234.294 334.352C231.033 334.352 227.307 333.42 225.444 335.284C224.047 337.147 224.512 339.942 224.512 342.737C219.854 342.271 219.388 335.284 215.197 336.681C211.005 337.613 206.347 338.078 202.62 340.408C205.415 345.998 197.962 342.737 198.894 343.668C191.907 339.476 185.852 336.215 178.399 339.01C162.562 333.886 142.999 336.215 128.559 338.079C128.559 335.75 129.025 333.421 128.093 332.955C127.161 335.284 124.367 334.352 124.833 334.352C115.983 328.297 107.133 324.57 97.817 319.447C89.433 320.379 81.514 316.186 79.185 313.857C72.664 307.802 65.211 311.062 59.156 309.665C46.114 306.404 41.456 292.896 40.058 283.581C39.126 278.923 35.4 277.06 34.003 277.525C27.948 257.962 18.632 240.262 11.179 222.096C9.316 217.438 9.782 212.78 9.782 207.656C12.111 208.588 14.44 208.122 13.974 204.862C11.645 189.491 6.056 177.846 0 166.667C3.261 150.83 3.726 132.198 11.179 118.224C17.7 105.648 29.811 99.126 38.195 88.413C40.99 84.687 40.99 79.563 43.785 76.303C53.101 66.987 62.417 57.205 72.664 48.821C77.322 45.095 82.911 48.821 89.898 47.424C92.227 39.04 101.543 31.587 110.393 33.916C114.119 34.848 121.572 25.066 123.901 24.134C127.627 22.737 125.764 27.86 125.764 31.121C134.614 24.134 146.725 20.408 157.904 16.215Z" fill="white"/>
            <g clip-path="url(#clip2_2_9)">
                <g clip-path="url(#clip3_2_9)">
                    <g clip-path="url(#clip4_2_9)">
                        <g clip-path="url(#clip5_2_9)">
                            <g clip-path="url(#clip6_2_9)">
                                <g clip-path="url(#clip7_2_9)">
                                    <path d="M160.962 270H107.899V90H159.19C175.595 90 187.949 94 196.253 102C204.523 110 208.658 122 208.658 138C208.658 146.405 206.565 153.814 202.38 160.228C198.16 166.641 192.473 171.62 185.316 175.165C193.553 177.662 200.084 182.743 204.911 190.405C209.705 198.068 212.101 207.3 212.101 218.101C212.101 234.236 207.679 246.928 198.835 256.177C189.992 265.392 177.367 270 160.962 270ZM161.924 185.797H130.532V250.608H161.418C169.992 250.608 176.793 247.772 181.823 242.101C186.852 236.464 189.367 228.532 189.367 218.304C189.367 196.633 180.219 185.797 161.924 185.797ZM130.532 109.544V166.759H159.595C167.426 166.759 173.755 164.127 178.582 158.861C183.376 153.595 185.772 146.591 185.772 137.848C185.772 127.958 183.595 120.768 179.241 116.278C174.886 111.789 168.203 109.544 159.19 109.544H130.532Z" fill="white"/>
                                </g>
                            </g>
                        </g>
                    </g>
                </g>
            </g>
        </g>
    </g>
    <defs>
        <clipPath id="clip0_2_9">
            <rect width="320" height="360" fill="white"/>
        </clipPath>
        <clipPath id="clip1_2_9">
            <rect width="320" height="360" fill="white"/>
        </clipPath>
        <clipPath id="clip2_2_9">
            <rect width="104.217" height="180" fill="white" transform="translate(107.891 90)"/>
        </clipPath>
        <clipPath id="clip3_2_9">
            <rect width="104.217" height="180" fill="white" transform="translate(107.891 90)"/>
        </clipPath>
        <clipPath id="clip4_2_9">
            <rect width="104.217" height="180" fill="white" transform="translate(107.891 90)"/>
        </clipPath>
        <clipPath id="clip5_2_9">
            <rect width="104.217" height="180" fill="white" transform="translate(107.891 90)"/>
        </clipPath>
        <clipPath id="clip6_2_9">
            <rect width="104.217" height="180" fill="white" transform="translate(107.891 90)"/>
        </clipPath>
        <clipPath id="clip7_2_9">
            <rect width="104.217" height="180" fill="white" transform="translate(107.891 90)"/>
        </clipPath>
    </defs>
</svg>
